<svg xmlns="http://www.w3.org/2000/svg" class="aw-role-effect-glyph" viewBox="-90 -90 180 180" aria-hidden="true"><g class="aw-role-effect-halo"><path d="M-67 36C-90-10-50-80 4-77C61-73 92-25 68 35M57 52C22 85-36 78-61 48"></path><path d="M-71 24C-80-17-45-65-4-67M70-15C85 28 40 78 2 73"></path></g><g class="aw-role-effect-imprint"><g><path class="aw-role-effect-solid" d="M0-72L15-39L45-58L43-26L74-16L46 6L64 43L25 38L3 76L-13 42L-48 56L-44 23L-75 5L-41-13L-52-51L-18-40Z"></path><path d="M-36-12L-28-40L-8-20L14-37L33-13L26 20L2 40L-25 17ZM-23-1L-8 6M12 5L24-3M-9 21L4 28L14 18"></path></g></g><g class="aw-role-effect-dust"><path class="aw-role-effect-particle" d="M-2-4L2-3L4 1L0 4L-3 1Z"></path><path class="aw-role-effect-particle" d="M-2-4L2-3L4 1L0 4L-3 1Z"></path><path class="aw-role-effect-particle" d="M-2-4L2-3L4 1L0 4L-3 1Z"></path><path class="aw-role-effect-particle" d="M-2-4L2-3L4 1L0 4L-3 1Z"></path><path class="aw-role-effect-particle" d="M-2-4L2-3L4 1L0 4L-3 1Z"></path><path class="aw-role-effect-particle" d="M-2-4L2-3L4 1L0 4L-3 1Z"></path><path class="aw-role-effect-particle" d="M-2-4L2-3L4 1L0 4L-3 1Z"></path><path class="aw-role-effect-particle" d="M-2-4L2-3L4 1L0 4L-3 1Z"></path><path class="aw-role-effect-particle" d="M-2-4L2-3L4 1L0 4L-3 1Z"></path><path class="aw-role-effect-particle" d="M-2-4L2-3L4 1L0 4L-3 1Z"></path></g></svg>
